<svg width="40" height="40" viewBox="0 0 40 40" xmlns="http://www.w3.org/2000/svg">
  <!-- Background circle -->
  <circle cx="20" cy="20" r="18" fill="#FFF4E6" stroke="#D4A574" stroke-width="2"/>
  
  <!-- Body -->
  <ellipse cx="20" cy="28" rx="8" ry="6" fill="#4A90A4"/>
  
  <!-- Head -->
  <circle cx="20" cy="16" r="10" fill="#FFF4E6"/>
  
  <!-- Glasses frame -->
  <circle cx="16" cy="14" r="4" fill="none" stroke="#8B4513" stroke-width="1.5"/>
  <circle cx="24" cy="14" r="4" fill="none" stroke="#8B4513" stroke-width="1.5"/>
  <line x1="20" y1="14" x2="20" y2="14" stroke="#8B4513" stroke-width="1.5"/>
  
  <!-- Glasses lenses -->
  <circle cx="16" cy="14" r="3" fill="#87CEEB" opacity="0.7"/>
  <circle cx="24" cy="14" r="3" fill="#87CEEB" opacity="0.7"/>
  
  <!-- Eyes -->
  <circle cx="16" cy="14" r="1.5" fill="#2C3E50"/>
  <circle cx="24" cy="14" r="1.5" fill="#2C3E50"/>
  
  <!-- Beak -->
  <polygon points="20,18 18,20 22,20" fill="#FF8C00"/>
  
  <!-- Hair tuft -->
  <path d="M 20 8 Q 18 6 16 8 Q 20 4 24 8 Q 22 6 20 8" fill="#D4A574"/>
  
  <!-- Tie -->
  <polygon points="20,22 18,24 20,30 22,24" fill="#E74C3C"/>
  <circle cx="20" cy="23" r="1" fill="#C0392B"/>
  
  <!-- Arms -->
  <ellipse cx="12" cy="26" rx="2" ry="4" fill="#4A90A4"/>
  <ellipse cx="28" cy="26" rx="2" ry="4" fill="#4A90A4"/>
  
  <!-- Hands -->
  <circle cx="12" cy="30" r="2" fill="#FFF4E6"/>
  <circle cx="28" cy="30" r="2" fill="#FFF4E6"/>
</svg>